<?xml version="1.0" encoding="utf-8"?>
<svg version="1.1" id="Icon 1" viewBox="0 0 1024 1024">
	<path fill="none" fill-rule="evenodd" stroke="#FFFFFF" stroke-width="10" d="M362,354.5C357.86,354.5,354.5,357.86,354.5,362L354.5,407.7C354.5,411.84,357.86,415.2,362,415.2C366.14,415.2,369.5,411.84,369.5,407.7L369.5,369.5L408,369.5C412.14,369.5,415.5,366.14,415.5,362C415.5,357.86,412.14,354.5,408,354.5L362,354.5z M616,354.5C611.86,354.5,608.5,357.86,608.5,362C608.5,366.14,611.86,369.5,616,369.5L654.5,369.5L654.5,407.7C654.5,411.84,657.86,415.2,662,415.2C666.14,415.2,669.5,411.84,669.5,407.7L669.5,362C669.5,357.86,666.14,354.5,662,354.5L616,354.5z M662,608.8C657.86,608.8,654.5,612.16,654.5,616.3L654.5,654.5L616,654.5C611.86,654.5,608.5,657.86,608.5,662C608.5,666.14,611.86,669.5,616,669.5L662,669.5C666.14,669.5,669.5,666.14,669.5,662L669.5,616.3C669.5,612.16,666.14,608.8,662,608.8z M362,608.8C357.86,608.8,354.5,612.16,354.5,616.3L354.5,662C354.5,666.14,357.86,669.5,362,669.5L408,669.5C412.14,669.5,415.5,666.14,415.5,662C415.5,657.86,412.14,654.5,408,654.5L369.5,654.5L369.5,616.3C369.5,612.16,366.14,608.8,362,608.8z M512,504.5C507.86,504.5,504.5,507.86,504.5,512L504.5,627.2C504.47,629.21,505.25,631.14,506.66,632.57C508.07,634,509.99,634.8,512,634.8C514.01,634.8,515.93,634,517.34,632.57C518.75,631.14,519.53,629.21,519.5,627.2L519.5,512C519.5,507.86,516.14,504.5,512,504.5z M 431.2 539.2 A 7.501 7.501 0 0 0 423.7 546.8 C 423.7 595.3 463 634.8 512 634.8 A 7.5 7.5 0 0 0 519.5 627.2 C 519.5 578.7 480.2 539.2 431.2 539.2 z M 439.2 554.7 C 473.7 558.3 500.4 585.2 504.1 619.3 C 469.5 615.7 442.8 588.8 439.2 554.7 z  M 592.8 539.2 C 543.8 539.2 504.5 578.7 504.5 627.2 A 7.501 7.501 0 0 0 512 634.8 C 561 634.8 600.3 595.3 600.3 546.8 A 7.5 7.5 0 0 0 592.8 539.2 z M 584.8 554.7 C 581.2 588.8 554.4 615.7 519.9 619.3 C 523.6 585.2 550.3 558.3 584.8 554.7 z  M 512 391.6 A 7.501 7.501 0 0 0 506.7 393.8 L 477.5 423.2 L 457.4 402.5 A 7.501 7.501 0 0 0 445.4 404.2 C 439.1 415.8 435.3 428.9 435.3 442.5 C 435.3 484.9 469.7 519.5 512 519.5 C 554.3 519.5 588.7 484.9 588.7 442.5 C 588.7 428.9 584.9 415.8 578.6 404.2 A 7.501 7.501 0 0 0 566.6 402.5 L 546.5 423.2 L 517.3 393.8 A 7.501 7.501 0 0 0 512 391.6 z M 512 409.8 L 541.3 439.2 A 7.501 7.501 0 0 0 552 439.1 L 569.7 420.9 C 572.2 427.9 573.7 435.2 573.7 442.5 C 573.7 476.7 546.1 504.5 512 504.5 C 477.9 504.5 450.3 476.7 450.3 442.5 C 450.3 435.2 451.8 427.9 454.3 420.9 L 472 439.1 A 7.501 7.501 0 0 0 482.7 439.2 L 512 409.8 z "/>
	<path visibility="visible" fill="none" fill-rule="evenodd" stroke="#FFFFFF" stroke-width="10" d="M 488.9 2.84 C 487.5 3.026 486 3.494 484.9 4.428 C 484.3 4.873 483.7 5.47 483.3 6.093 C 482.9 7.339 482.3 8.568 482 9.824 C 482.1 11.01 482.2 12.22 482.4 13.39 C 483.2 14.77 483.9 16.25 485.4 16.93 C 486.2 17.37 487.1 17.64 488 17.74 C 488.9 17.67 489.8 17.84 490.6 17.63 C 491.9 16.94 493.3 16.36 494.5 15.6 C 495.2 14.19 496.1 12.8 496.7 11.37 C 497.2 8.823 496.2 6.047 494.1 4.477 C 493.4 3.851 492.4 3.492 491.6 3.144 C 490.7 2.975 489.8 2.749 488.9 2.84 z M 496.8 10.76 C 496.8 11.31 496.7 11.89 496.8 10.76 z M 496.8 10.6 C 496.9 10.31 496.9 10.32 496.8 10.6 z M 473.3 24.83 C 463.6 25.62 454 26.65 444.4 28 C 444 28.05 443.2 28.17 442.7 28.25 C 442 28.34 441.3 28.44 440.6 28.54 C 440.3 28.6 439.4 28.72 438.9 28.81 C 438 28.94 437.1 29.07 436.3 29.19 C 433.4 29.64 430.5 30.12 427.6 30.63 C 427 30.74 426.1 30.92 425.3 31.05 C 413.1 33.25 401 35.9 389 39.02 C 388.6 39.12 387.8 39.32 387.3 39.46 C 372.6 43.37 358.1 47.84 343.9 53.1 C 334.6 56.59 325.4 60.2 316.4 64.21 C 309.1 67.4 301.9 70.73 294.8 74.26 C 288 77.63 281.2 81.19 274.6 84.87 C 274.3 85.05 273.6 85.46 273.1 85.72 C 261.3 92.33 249.8 99.44 238.6 107 C 238.2 107.2 237.6 107.7 237.1 108 C 216.2 122.2 196.4 138 178 155.3 C 173.4 159.8 168.7 164.3 164.2 169 C 192.7 218.3 221.2 267.7 249.7 317 C 259 333 268.3 349 277.6 365 C 320 291.3 362.5 217.7 404.9 144 C 421.9 114.5 438.8 84.97 455.8 55.49 C 461.7 45.27 467.6 35.04 473.5 24.82 L 473.4 24.82 L 473.3 24.83 z M 637 35.04 C 637.3 34.64 637.7 34 637 35.04 z M 632.6 42.62 C 620 64.24 607.7 85.98 595.1 107.6 C 570.6 150.3 546 192.9 521.5 235.6 C 652.6 235.6 783.6 235.6 914.7 235.6 C 900.6 215.1 885.1 195.6 868.2 177.5 C 857.9 166.5 847.1 156 835.9 146 C 835.6 145.7 835 145.2 834.5 144.8 C 829.7 140.5 824.7 136.3 819.7 132.2 C 819.4 132 818.8 131.4 818.3 131.1 C 815.7 128.9 812.9 126.8 810.2 124.7 C 809.9 124.5 809.3 123.9 808.8 123.6 C 807.6 122.6 806.3 121.7 805 120.7 C 804.7 120.5 804 120 803.6 119.6 C 794.4 112.8 785.1 106.3 775.5 100.2 C 775.2 100 774.5 99.53 774 99.24 C 771.5 97.62 768.9 96.04 766.4 94.47 C 766.1 94.3 765.3 93.85 764.9 93.57 C 754.8 87.49 744.5 81.73 733.9 76.42 C 717.6 68.09 700.7 60.72 683.5 54.34 C 683.2 54.23 682.4 53.93 681.9 53.75 C 680.8 53.36 679.8 53 678.8 52.65 C 664.4 47.41 649.6 42.92 634.7 39.16 C 634 40.31 633.3 41.47 632.6 42.62 z M 71.08 301.6 C 69.44 305 67.84 308.5 66.27 311.9 C 66.12 312.3 65.78 313 65.56 313.5 C 58.5 329.2 52.38 345.3 47.09 361.7 C 47.02 362 46.73 362.9 46.58 363.4 C 44.24 370.6 42.16 378 40.15 385.3 C 38.95 389.2 37.98 393.2 37.06 397.1 C 33.73 411 31.03 425.1 28.93 439.2 C 28.88 439.6 28.75 440.4 28.68 440.9 C 27.05 452.1 25.86 463.3 24.98 474.6 C 24.52 479.2 24.15 483.9 24.01 488.5 C 23.52 499.8 23.39 511.1 23.64 522.4 C 23.65 522.7 23.67 523.6 23.69 524.1 C 23.71 525 23.74 526 23.76 526.9 C 23.77 527.2 23.81 528.1 23.82 528.7 C 24.72 554.4 27.62 580.2 32.49 605.5 C 32.56 605.9 32.72 606.7 32.82 607.2 C 33.36 610 33.92 612.8 34.51 615.5 C 34.59 615.9 34.77 616.7 34.88 617.3 C 36.62 625.1 38.44 632.9 40.58 640.6 C 40.85 641 40.64 642.1 41.37 642 C 116.9 642 192.4 642 267.8 642 C 202.3 528.5 136.7 415 71.17 301.4 L 71.12 301.5 L 71.08 301.6 z M 756.7 383.4 C 762.7 393.7 768.7 404.1 774.7 414.5 C 791.9 444.4 809.2 474.3 826.5 504.1 C 867 574 907.4 643.9 947.9 713.8 C 949.6 716.6 951.2 719.5 952.9 722.4 C 956.4 715.1 959.6 707.7 962.7 700.3 C 967.1 690.6 970.5 680.7 974.1 670.7 C 979.3 655.7 983.7 640.5 987.1 625 C 988.4 618.9 989.7 612.8 991 606.7 C 991.2 603.3 992.2 600.1 993.3 597 C 994.2 592.2 995.1 587.4 996 582.6 C 996 579.4 995.9 576.2 996.1 573 C 996.2 571.4 996.8 569.9 997 568.3 C 998 558.9 999.1 549.4 1000 540 C 1000 535.3 999.9 530.7 1000 526 C 1000 523 1001 520.2 1001 517.2 C 1001 514.8 1001 512.3 1001 509.8 C 1000 507 999.9 504.2 1000 501.4 C 1000 496.1 1000 490.8 1000 485.5 C 999 480.1 999 474.5 999 469 C 998 460.7 997.1 452.5 996 444.2 C 995.1 439.6 995.1 434.9 994.1 430.3 C 993.2 426.9 993.1 423.3 992.2 419.8 C 992.1 418.3 991.4 416.9 991.2 415.4 C 990.4 413.4 990.1 411.2 989.4 409.1 C 988.8 406.7 988.2 404 987.6 401.6 C 986.1 395.1 984.5 388.5 982.8 382 C 907.1 382 831.5 382 755.9 382 C 756.1 382.5 756.4 382.9 756.7 383.4 z M 744.6 662.4 C 730.7 686.3 716.8 710.1 703.1 734.1 C 660.7 807.4 618.4 880.7 576.1 954.1 C 567.4 969.1 558.7 984.1 549.9 999.1 C 552.4 999.1 554.9 998.8 557.3 998.5 C 565.8 997.7 574.3 996.7 582.7 995.1 C 583.7 995 584.7 995.1 585.6 994.9 C 587.8 994.2 590.2 994 592.5 994 C 600.1 992.7 607.8 991.4 615.3 989.7 C 626.3 987.4 637.3 984.8 648.1 981.6 C 650.8 980.7 653.6 979.9 656.3 979.1 C 656.8 979 657.6 978.7 658.2 978.5 C 668.9 975.2 679.4 971.4 689.8 967.3 C 700.5 963.1 711.2 958.5 721.6 953.5 C 721.9 953.3 722.7 953 723.2 952.7 C 731.5 948.7 739.6 944.5 747.7 940.1 C 748.1 939.9 748.8 939.5 749.2 939.3 C 756.2 935.4 763.1 931.4 769.9 927.1 C 770.3 926.9 771 926.5 771.4 926.2 C 778.9 921.6 786.1 916.6 793.3 911.6 C 800.2 906.6 807.1 901.5 813.8 896.2 C 821.5 890.2 829 883.9 836.3 877.4 C 836.5 877.3 837.2 876.6 837.6 876.3 C 845.2 869.5 852.6 862.5 859.8 855.2 C 822.1 789.8 784.3 724.4 746.5 659 C 745.9 660.1 745.2 661.2 744.6 662.4 z M 109 788.4 C 118.5 802.3 128.8 815.6 139.6 828.5 C 150 840.9 161.1 852.6 172.7 863.8 C 187.8 878.5 203.9 892.1 220.9 904.5 C 233.3 913.7 246.1 922.3 259.3 930.3 C 269.5 936.5 279.9 942.2 290.6 947.6 C 298.8 951.7 307.2 955.7 315.6 959.4 C 316 959.6 316.8 959.9 317.3 960.2 C 319.2 961 321.1 961.8 322.9 962.6 C 323.3 962.7 324 963 324.6 963.3 C 344.2 971.4 364.3 978.3 384.8 984 C 385.9 984.3 387.1 984.6 388.3 985 C 398.5 967.3 408.6 949.6 418.8 932 C 446.5 884.2 474.1 836.3 501.7 788.4 C 370.8 788.4 239.9 788.4 108.9 788.4 L 109 788.4 z "/>
	<path fill="none" fill-rule="evenodd" stroke="#FFFFFF" stroke-width="10" d="M 493.2 9.68 C 491.7 9.757 490 9.808 488.5 9.877 C 437.9 12.13 387.8 22.32 340.2 39.48 C 338.7 40.16 337.1 40.71 335.5 41.33 C 268.7 66.38 207.4 105.8 157 156.2 C 153.6 159.7 150.2 163.2 146.8 166.7 C 178.1 221.1 209.5 275.4 241 329.8 C 252.4 349.6 263.9 369.4 275.4 389.2 C 276.2 390 276.9 390.7 277.6 391.4 C 278.6 390.3 279.8 389.5 280.4 388.1 C 344.2 277.3 408.1 166.5 471.9 55.61 C 480 41.49 488.1 27.37 496.2 13.25 C 496.2 12.2 496.2 11.15 496.2 10.1 C 495.2 9.961 494.1 9.831 493.2 9.689 C 493.2 9.678 493.5 9.617 493.2 9.68 z M 626.9 24.69 C 616.1 42.85 605.7 61.3 595.1 79.59 C 563.2 135 531.3 190.5 499.4 245.9 C 499.1 246.8 498.9 247.8 498.6 248.8 C 500 249.1 501.4 249.8 502.9 249.6 C 647.2 249.6 791.6 249.6 935.9 249.6 C 936.9 249.3 937.9 249 938.9 248.7 C 938.4 247.4 938.3 245.9 937.4 244.8 C 897.6 181 843.4 126.4 779.8 86.31 C 739.3 60.8 695.1 41.23 649 28.46 C 642 26.51 634.9 24.76 627.8 23.1 C 627.5 23.63 627.2 24.16 626.9 24.69 z M 68.29 276.2 C 65.72 281.3 62.97 286.4 60.46 291.5 C 46.16 320.5 34.78 350.8 26.57 382 C 26.06 383.8 25.39 385.6 24.99 387.5 C 17.81 416 13.03 445.2 10.97 474.5 C 10.74 476 10.66 477.4 10.5 478.9 C 7.429 528.2 11.45 577.9 22.49 626 C 23.13 628 23.35 630 23.9 632 C 25.83 640.1 28.07 648 30.3 656 C 116.1 656 202 656 287.8 656 C 288.8 655.8 289.8 655.5 290.8 655.2 C 290.3 653.8 290.2 652.3 289.3 651.1 C 217.1 526.1 144.9 401.1 72.69 276.1 C 71.94 275.4 71.18 274.7 70.43 274 C 69.72 274.7 69 275.5 68.29 276.2 z M 733 368.8 C 733.4 370.2 733.5 371.7 734.4 372.9 C 806.8 497.9 879 622.9 951.5 747.9 C 952.2 748.6 952.9 749.3 953.7 750 C 954.6 749 955.9 748.1 956.4 746.8 C 963.1 734 969.3 721 974.8 707.7 C 976.8 703.6 978.4 699.3 980.1 695.1 C 983.9 685.1 987.5 675 990.8 664.8 C 992.2 660.8 993.3 656.6 994.6 652.5 C 998.7 638.1 1002 623.6 1005 608.9 C 1006 604.1 1007 599.2 1008 594.4 C 1009 588.8 1010 583.1 1010 577.5 C 1010 575.2 1011 572.9 1011 570.6 C 1012 561 1013 551.5 1014 541.9 C 1016 498.5 1013 454.7 1005 412.1 C 1004 410.1 1004 407.9 1003 405.9 C 1000 393.1 997.1 380.5 993.4 368 C 907.6 368 821.7 368 735.9 368 C 734.9 368.2 733.9 368.5 733 368.8 z M 744.4 634.6 C 671.9 759.9 599.5 885.4 527.1 1011 C 526.9 1012 526.6 1013 526.4 1014 C 527.8 1014 529.1 1015 530.6 1014 C 603.5 1012 675.8 993 740.7 959.7 C 787.6 935.8 830.5 904.4 867.6 867.1 C 870.8 863.9 874 860.6 877.1 857.3 C 834.4 783 791.5 708.8 748.7 634.6 C 748 633.8 747.3 633.1 746.5 632.4 C 745.8 633.1 745.1 633.8 744.4 634.6 z M 84.68 775.3 C 85.14 776.6 85.23 778.1 86.14 779.2 C 90.11 785.4 94.12 791.6 98.32 797.7 C 131.4 845.7 173 887.9 220.6 921.6 C 272.9 958.9 332.4 985.7 394.7 1001 C 395.5 1001 395.6 1000 395.9 999.8 C 438.5 925.9 481.3 852.1 523.9 778.1 C 524.2 777.2 524.5 776.2 524.7 775.2 C 523.3 774.9 521.9 774.2 520.5 774.4 C 376.2 774.4 231.9 774.4 87.61 774.4 C 86.63 774.7 85.65 775 84.68 775.3 z "/>
</svg>